<?xml version="1.0" encoding="UTF-8"?>
<svg version="1.1" xmlns="http://www.w3.org/2000/svg" width="1024" height="1024">
<path d="M0 0 C337.92 0 675.84 0 1024 0 C1024 337.92 1024 675.84 1024 1024 C686.08 1024 348.16 1024 0 1024 C0 686.08 0 348.16 0 0 Z " fill="#FEF9EF" transform="translate(0,0)"/>
<path d="M0 0 C1.14525146 0.00563965 2.29050293 0.0112793 3.47045898 0.01708984 C12.09686797 0.14049007 19.93747708 0.85399713 28.25 3.3125 C28.92289063 3.51117676 29.59578125 3.70985352 30.2890625 3.91455078 C45.07497021 8.4007296 57.46073137 15.23182103 69.25 25.3125 C69.8378125 25.7559375 70.425625 26.199375 71.03125 26.65625 C89.68008226 41.08270515 100.89801286 66.95067221 104.80859375 89.5390625 C107.98424052 116.68662688 101.77787933 143.91356997 86.08984375 166.41015625 C83.91069639 169.15880854 81.63811307 171.74364407 79.25 174.3125 C78.81349121 174.79525391 78.37698242 175.27800781 77.92724609 175.77539062 C60.51942291 194.90864531 35.28066636 207.58371794 9.30981445 209.53320312 C-14.29754661 210.41328167 -33.85735014 206.39839584 -54.75 195.3125 C-54.646875 196.364375 -54.54375 197.41625 -54.4375 198.5 C-54.45451868 208.08151932 -59.48157941 217.33211065 -65.75 224.3125 C-66.26175781 224.90417969 -66.77351562 225.49585938 -67.30078125 226.10546875 C-72.07242788 231.26431343 -77.77009322 234.70360721 -83.75 238.3125 C-84.74 238.9725 -85.73 239.6325 -86.75 240.3125 C-86.43998047 240.78743896 -86.12996094 241.26237793 -85.81054688 241.75170898 C-78.34600342 253.19435429 -70.93885607 264.672239 -63.58984375 276.18945312 C-60.51160451 281.01082784 -57.42458865 285.82501029 -54.2890625 290.609375 C-53.77102051 291.40126221 -53.25297852 292.19314941 -52.71923828 293.0090332 C-51.76580099 294.46327064 -50.80865686 295.91508706 -49.84716797 297.36401367 C-46.75 302.09180981 -46.75 302.09180981 -46.75 304.3125 C-79.86922691 307.92950959 -79.86922691 307.92950959 -88.84375 302.40966797 C-93.76544678 297.27572301 -96.53000424 291.03683068 -99.28271484 284.55029297 C-101.67821626 279.26424642 -104.91110318 274.56640789 -108.125 269.75 C-111.67950653 264.2974325 -115.12827487 258.93527386 -117.83935547 253.00683594 C-119.45852824 250.20717246 -121.67685486 247.79481852 -123.75 245.3125 C-129.69 244.9825 -135.63 244.6525 -141.75 244.3125 C-141.75 263.7825 -141.75 283.2525 -141.75 303.3125 C-153.63 303.3125 -165.51 303.3125 -177.75 303.3125 C-177.75 246.2225 -177.75 189.1325 -177.75 130.3125 C-149.76595788 130.3125 -149.76595788 130.3125 -141.37109375 130.4609375 C-140.37844009 130.4783902 -139.38578644 130.4958429 -138.36305237 130.51382446 C-136.32314552 130.55114407 -134.28326273 130.58980515 -132.2434082 130.62988281 C-130.175774 130.66886673 -128.10805554 130.70357737 -126.0402832 130.734375 C-122.98364987 130.78000703 -119.92746219 130.8378161 -116.87109375 130.8984375 C-115.95444443 130.90998871 -115.0377951 130.92153992 -114.09336853 130.93344116 C-108.95403843 131.05177143 -104.62360889 131.65684232 -99.75 133.3125 C-99.95496094 132.66023437 -100.15992188 132.00796875 -100.37109375 131.3359375 C-100.64050781 130.46195313 -100.90992188 129.58796875 -101.1875 128.6875 C-101.45433594 127.82898438 -101.72117187 126.97046875 -101.99609375 126.0859375 C-106.50570048 109.49619254 -105.67770815 87.44903887 -99.75 71.3125 C-99.18925781 69.74822266 -99.18925781 69.74822266 -98.6171875 68.15234375 C-93.8461541 55.90879777 -87.58610496 45.04742628 -78.75 35.3125 C-78.09088623 34.57966797 -78.09088623 34.57966797 -77.41845703 33.83203125 C-57.55383969 12.0111032 -29.49194404 -0.15270627 0 0 Z " fill="#009A95" transform="translate(808.75,310.6875)"/>
<path d="M0 0 C2.11235001 -0.01188348 4.22176439 -0.06103468 6.33349609 -0.11157227 C7.67853393 -0.12103844 9.0235897 -0.12827255 10.36865234 -0.13305664 C11.59181152 -0.14651123 12.8149707 -0.15996582 14.07519531 -0.17382812 C17.25146484 0.42553711 17.25146484 0.42553711 19.4987793 2.50976562 C21.46120133 5.77445518 22.89015093 9.06821473 24.17724609 12.63647461 C24.44104568 13.34333908 24.70484528 14.05020355 24.97663879 14.77848816 C25.54719114 16.31038 26.1135275 17.84384734 26.67608643 19.37869263 C27.89954339 22.71588658 29.14398359 26.04514557 30.38671875 29.37519836 C31.03818971 31.12177454 31.68856523 32.86875968 32.33789062 34.61613464 C35.61578327 43.43326836 38.98905197 52.21252493 42.37646484 60.98803711 C42.99084196 62.58198527 43.60509794 64.17598013 44.21923828 65.77001953 C45.1829451 68.27135969 46.14673317 70.77266819 47.1109314 73.27381897 C49.79681419 80.24177308 52.47597086 87.21230031 55.15380859 94.18334961 C56.01007557 96.41178984 56.86635824 98.64022404 57.72265625 100.86865234 C59.01496723 104.2317826 60.30704131 107.59500279 61.59832764 110.95852661 C65.90926996 122.18696279 70.23159815 133.4100177 74.63818359 144.60131836 C75.30281681 146.2931311 75.967449 147.98494423 76.63208008 149.67675781 C77.84400456 152.760418 79.06471919 155.84039109 80.29077148 158.91845703 C80.82484338 160.27486599 81.358635 161.63138536 81.89208984 162.98803711 C82.35131836 164.14432617 82.81054688 165.30061523 83.28369141 166.49194336 C84.25146484 169.42553711 84.25146484 169.42553711 84.25146484 173.42553711 C72.37146484 173.42553711 60.49146484 173.42553711 48.25146484 173.42553711 C46.84896484 169.71303711 45.44646484 166.00053711 44.00146484 162.17553711 C43.56801758 161.03181641 43.13457031 159.8880957 42.68798828 158.7097168 C42.3325293 157.76515625 41.97707031 156.8205957 41.61083984 155.84741211 C41.25473633 154.90478516 40.89863281 153.9621582 40.53173828 152.9909668 C38.68013406 147.8344397 36.98404125 142.62326631 35.25146484 137.42553711 C14.13146484 137.42553711 -6.98853516 137.42553711 -28.74853516 137.42553711 C-32.65584782 148.56884779 -32.65584782 148.56884779 -36.55688477 159.71435547 C-37.04632117 161.10644422 -37.5359711 162.49845793 -38.02587891 163.89038086 C-38.2798645 164.61938599 -38.5338501 165.34839111 -38.79553223 166.0994873 C-40.63446336 171.31146531 -40.63446336 171.31146531 -41.74853516 172.42553711 C-44.41479546 172.51408872 -47.0550063 172.54078384 -49.72119141 172.52319336 C-50.51883408 172.52177841 -51.31647675 172.52036346 -52.13829041 172.51890564 C-54.69590951 172.51329027 -57.25344233 172.50073523 -59.81103516 172.48803711 C-61.5408516 172.48302409 -63.27066942 172.47846084 -65.00048828 172.47436523 C-69.24987069 172.46331586 -73.49918827 172.44604097 -77.74853516 172.42553711 C-77.14253211 169.08246028 -76.3266905 165.98813562 -75.16064453 162.79858398 C-74.83450668 161.90131088 -74.50836884 161.00403778 -74.17234802 160.07957458 C-73.81592728 159.11092972 -73.45950653 158.14228485 -73.09228516 157.14428711 C-72.71850235 156.12025284 -72.34471954 155.09621857 -71.95960999 154.04115295 C-70.72664824 150.66777784 -69.4878958 147.29656611 -68.24853516 143.92553711 C-67.38124903 141.55957663 -66.51398037 139.19360976 -65.64672852 136.82763672 C-58.58995645 117.60410057 -51.38717197 98.43771426 -44.1131134 79.29553223 C-41.21214461 71.65785763 -38.32978684 64.01325156 -35.45166016 56.36694336 C-34.54598636 53.9619116 -33.64030604 51.55688229 -32.73461914 49.15185547 C-31.41410628 45.64504759 -30.09395998 42.13810456 -28.775177 38.63064575 C-20.91691449 17.7342937 -20.91691449 17.7342937 -17.29150391 8.51147461 C-16.84186279 7.36469238 -16.39222168 6.21791016 -15.92895508 5.03637695 C-12.89225543 -1.68016203 -6.41208806 0.01711279 0 0 Z " fill="#019A95" transform="translate(539.74853515625,441.574462890625)"/>
<path d="M0 0 C10.48890478 9.06339926 18.31591833 21.25031901 20.5 35.125 C20.8280884 39.69047071 20.87012418 44.23654152 20.875 48.8125 C20.89949219 50.00294922 20.92398438 51.19339844 20.94921875 52.41992188 C21.00566583 69.72095206 14.42626351 84.07656829 2.41796875 96.328125 C-11.53881238 109.98381394 -28.0847279 114.55106871 -47.11279297 114.49072266 C-65.69617811 114.15227838 -80.3895227 106.48459114 -93.2421875 93.34375 C-106.80627412 78.44433879 -109.15781019 61.07234679 -108.62744141 41.7578125 C-107.87621217 26.23816474 -100.49470927 12.79408199 -89.5 2.125 C-88.86320312 1.47917969 -88.22640625 0.83335937 -87.5703125 0.16796875 C-63.85452022 -22.41615709 -24.5696752 -18.57799061 0 0 Z " fill="#01243A" transform="translate(364.5,502.875)"/>
<path d="M0 0 C2.76628915 -0.2667616 5.30619631 -0.34804189 8.0703125 -0.29296875 C9.26465408 -0.28660149 9.26465408 -0.28660149 10.48312378 -0.28010559 C13.03075729 -0.26328834 15.57760489 -0.22563179 18.125 -0.1875 C19.85024901 -0.17245705 21.57551039 -0.15876796 23.30078125 -0.14648438 C27.53415782 -0.11337501 31.76694559 -0.06157285 36 0 C33.35393963 9.3828187 30.10003925 18.55496477 26.875 27.75 C26.57243286 28.61424591 26.26986572 29.47849182 25.95812988 30.368927 C19.31721679 49.31421308 12.35363565 68.136498 5.35560608 86.95211792 C2.64028753 94.25898568 -0.05054612 101.57461302 -2.73046875 108.89453125 C-3.12209198 109.96419632 -3.51371521 111.03386139 -3.91720581 112.13594055 C-4.30707672 113.20088242 -4.69694763 114.26582428 -5.09863281 115.36303711 C-16.47864951 146.44753912 -16.47864951 146.44753912 -22 160.875 C-22.3911499 161.90206055 -22.7822998 162.92912109 -23.18530273 163.98730469 C-23.71232788 165.35097168 -23.71232788 165.35097168 -24.25 166.7421875 C-24.54390625 167.5038623 -24.8378125 168.26553711 -25.140625 169.05029297 C-26 171 -26 171 -28 174 C-30.76628915 174.2667616 -33.30619631 174.34804189 -36.0703125 174.29296875 C-36.86654022 174.28872391 -37.66276794 174.28447906 -38.48312378 174.28010559 C-41.03075729 174.26328834 -43.57760489 174.22563179 -46.125 174.1875 C-47.85024901 174.17245705 -49.57551039 174.15876796 -51.30078125 174.14648438 C-55.53415782 174.11337501 -59.76694559 174.06157285 -64 174 C-67.97440567 165.74665771 -71.21291616 157.27937789 -74.33004761 148.67755127 C-75.85070722 144.48322167 -77.38711318 140.29465427 -78.921875 136.10546875 C-79.24820419 135.21384033 -79.57453339 134.32221191 -79.91075134 133.40356445 C-83.86185639 122.62242498 -87.89920202 111.87371429 -91.9375 101.125 C-92.70475292 99.08203137 -93.47200553 97.03906262 -94.23925781 94.99609375 C-95.3824852 91.95243997 -96.52587052 88.90884582 -97.6696167 85.86538696 C-100.14821083 79.26978208 -102.62265314 72.67263599 -105.09375 66.07421875 C-106.06173129 63.48995374 -107.02973443 60.90569692 -107.9977417 58.32144165 C-108.62024475 56.65949961 -109.24268213 54.99753297 -109.86505127 53.33554077 C-112.99113522 44.98926999 -116.12714138 36.64714497 -119.3046875 28.3203125 C-119.69271294 27.30244911 -119.69271294 27.30244911 -120.08857727 26.26402283 C-121.28091678 23.13710835 -122.47632623 20.01148149 -123.67749023 16.88793945 C-124.29539429 15.27085083 -124.29539429 15.27085083 -124.92578125 13.62109375 C-125.28067627 12.6973999 -125.63557129 11.77370605 -126.0012207 10.82202148 C-127.14334907 7.59497143 -128.05957419 4.29149032 -129 1 C-116.13 1 -103.26 1 -90 1 C-85.50035874 12.24910314 -85.50035874 12.24910314 -83.65673828 17.72680664 C-83.03356972 19.57131912 -83.03356972 19.57131912 -82.39781189 21.45309448 C-81.95527937 22.77210409 -81.51278053 24.091125 -81.0703125 25.41015625 C-80.59833465 26.80999586 -80.12608381 28.20974345 -79.65357971 29.60940552 C-78.39926698 33.32701197 -77.14819538 37.04570095 -75.89785385 40.76464462 C-73.82763785 46.91982772 -71.75189963 53.07315303 -69.67678642 59.22668648 C-69.16037633 60.75819482 -68.64408635 62.28974366 -68.12791634 63.82133293 C-64.92648615 73.32009972 -61.70551836 82.81160319 -58.44140625 92.2890625 C-58.11086243 93.24999313 -57.7803186 94.21092377 -57.4397583 95.20097351 C-55.96154235 99.496235 -54.47827361 103.78964137 -52.98681641 108.08032227 C-50.59850681 114.99058463 -48.34630079 121.79525093 -47 129 C-46.34 129 -45.68 129 -45 129 C-44.83238159 128.34823792 -44.66476318 127.69647583 -44.49206543 127.02496338 C-42.58367029 119.79804017 -40.27971311 112.77650607 -37.78125 105.734375 C-37.37046707 104.5659758 -36.95968414 103.3975766 -36.53645325 102.19377136 C-35.65319297 99.68252902 -34.76865423 97.17178565 -33.88174438 94.66183472 C-31.76365687 88.66750814 -29.65548969 82.66969187 -27.54766273 76.67175102 C-27.06402077 75.29560803 -26.5802337 73.91951602 -26.09630394 72.5434742 C-22.51135569 62.34808972 -18.96776276 52.13913541 -15.45703125 41.91796875 C-15.01518394 40.63259314 -14.57332009 39.3472232 -14.13143921 38.06185913 C-12.44208164 33.14542748 -10.75352923 28.22874427 -9.07324219 23.3092041 C-7.92349879 19.94317902 -6.76879376 16.57889181 -5.61328125 13.21484375 C-5.10532768 11.71911079 -5.10532768 11.71911079 -4.58711243 10.19316101 C-4.27388535 9.28371231 -3.96065826 8.37426361 -3.63793945 7.43725586 C-3.36818802 6.64782089 -3.09843658 5.85838593 -2.82051086 5.04502869 C-2 3 -2 3 0 0 Z " fill="#01233A" transform="translate(239,441)"/>
<path d="M0 0 C11.22 0 22.44 0 34 0 C34 9.9 34 19.8 34 30 C42.91 30 51.82 30 61 30 C61 39.57 61 49.14 61 59 C52.09 59 43.18 59 34 59 C34.06765978 66.58256203 34.13810419 74.16418723 34.2355423 81.74627686 C34.28011791 85.27744362 34.31957026 88.80849406 34.34643555 92.33984375 C34.37753348 96.39612711 34.43231962 100.4517954 34.48828125 104.5078125 C34.49467117 105.76739777 34.5010611 107.02698303 34.50764465 108.32473755 C34.52743881 109.50550873 34.54723297 110.68627991 34.56762695 111.90283203 C34.58428154 113.45503952 34.58428154 113.45503952 34.60127258 115.03860474 C35.072443 118.53804267 36.21885641 120.96742757 38 124 C41.03125336 126.21514668 44.06423883 126.36173135 47.75 126.625 C48.73484375 126.69976563 49.7196875 126.77453125 50.734375 126.8515625 C51.48203125 126.90054688 52.2296875 126.94953125 53 127 C51.67554915 133.62894341 49.78331885 139.75290042 47.375 146.0625 C47.05015625 146.92810547 46.7253125 147.79371094 46.390625 148.68554688 C45.59908318 150.79244496 44.80216278 152.89712802 44 155 C31.10100888 155.47000373 19.96056509 155.23285257 10 146 C3.38223711 139.53264081 0.23958637 130.11430131 -0.12025452 120.93107605 C-0.11803391 119.78746109 -0.11581329 118.64384613 -0.11352539 117.46557617 C-0.11344986 116.16460495 -0.11337433 114.86363373 -0.11329651 113.52323914 C-0.10819062 112.11314861 -0.10297464 110.70305849 -0.09765625 109.29296875 C-0.09578979 107.84279937 -0.09436696 106.39262935 -0.09336853 104.94245911 C-0.0895613 101.13667034 -0.07974642 97.33092009 -0.06866455 93.52514648 C-0.05841177 89.63721233 -0.05386264 85.74927192 -0.04882812 81.86132812 C-0.03812246 74.24086587 -0.02054028 66.62044325 0 59 C-6.6 59 -13.2 59 -20 59 C-20 49.43 -20 39.86 -20 30 C-13.4 30 -6.8 30 0 30 C0 20.1 0 10.2 0 0 Z " fill="#01233A" transform="translate(405,460)"/>
<path d="M0 0 C5.14326216 2.38113989 8.03695154 5.76152799 10 11 C10.94548181 17.61837264 8.30646316 21.82277696 4.55273438 26.99365234 C2.89084389 29.16015508 1.20116992 31.30171101 -0.5 33.4375 C-1.7615826 35.03944707 -3.0219787 36.64232917 -4.28125 38.24609375 C-4.90902344 39.04515137 -5.53679687 39.84420898 -6.18359375 40.66748047 C-8.83771991 44.07574947 -11.42253367 47.53360192 -14 51 C-18.76642578 57.39890477 -23.64452368 63.7030859 -28.56274414 69.98583984 C-33.73474308 76.61266377 -38.77410261 83.33493051 -43.76293945 90.10058594 C-55.49484616 105.89896923 -55.49484616 105.89896923 -61 107 C-66.75177916 107.63908657 -70.35808868 106.24719415 -75 103 C-77.12266198 101.09356616 -78.99867322 99.02153804 -80.875 96.875 C-81.39255859 96.29878906 -81.91011719 95.72257812 -82.44335938 95.12890625 C-83.97039048 93.42633264 -85.48562391 91.71382548 -87 90 C-88.49862413 88.33209607 -89.99849232 86.66530852 -91.5 85 C-92.20898438 84.20851563 -92.91796875 83.41703125 -93.6484375 82.6015625 C-96.4493307 79.50289992 -99.28619831 76.43888751 -102.125 73.375 C-108.9173722 66.0260336 -108.9173722 66.0260336 -112.125 62.4375 C-112.64320313 61.85871094 -113.16140625 61.27992188 -113.6953125 60.68359375 C-116.84543506 56.61861524 -117.44087238 53.29941881 -117.31640625 48.24609375 C-116.66984704 43.65632161 -113.85160762 40.95179675 -110.875 37.625 C-106.70990424 35.27081544 -102.67348588 35.04421943 -98 36 C-93.50105453 38.53982189 -90.28847875 41.59081217 -86.875 45.4375 C-85.92215404 46.49894848 -84.96901811 47.5601367 -84.015625 48.62109375 C-83.52513672 49.1713623 -83.03464844 49.72163086 -82.52929688 50.28857422 C-79.91648926 53.21254953 -77.27353174 56.10840419 -74.625 59 C-73.89385986 59.80908813 -73.89385986 59.80908813 -73.14794922 60.63452148 C-70.30223355 63.74369314 -67.3612466 66.4576753 -64 69 C-63.73751465 68.43120117 -63.4750293 67.86240234 -63.20458984 67.27636719 C-61.90903493 64.82809924 -60.41730548 62.77174845 -58.7265625 60.578125 C-58.07276611 59.72573242 -57.41896973 58.87333984 -56.74536133 57.99511719 C-56.04564209 57.08922852 -55.34592285 56.18333984 -54.625 55.25 C-53.16225748 53.3441359 -51.70002204 51.43788251 -50.23828125 49.53125 C-49.51592285 48.59023438 -48.79356445 47.64921875 -48.04931641 46.6796875 C-45.27779813 43.05564835 -42.5413184 39.40623566 -39.8125 35.75 C-34.56589298 28.73215992 -29.26210118 21.75935415 -23.921875 14.8125 C-22.18537948 12.55349942 -20.46773336 10.28534829 -18.765625 8 C-18.16234375 7.195625 -17.5590625 6.39125 -16.9375 5.5625 C-16.45152344 4.90378906 -15.96554687 4.24507813 -15.46484375 3.56640625 C-11.24928849 -0.94142751 -5.76814932 -0.72101866 0 0 Z " fill="#FCF9EF" transform="translate(861,361)"/>
<path d="M0 0 C0.70253906 0.00829834 1.40507812 0.01659668 2.12890625 0.02514648 C11.0599932 0.31507664 16.89848123 3.50525437 23.3359375 9.51953125 C31.5334961 18.30774364 32.67844942 27.93351384 32.3671875 39.52734375 C31.79929217 48.69610552 29.01464039 56.12601125 22.125 62.4375 C12.68769776 68.31728516 4.22743051 70.69437893 -6.875 69.4375 C-15.36000249 66.75587075 -22.07239421 61.95311627 -26.875 54.4375 C-32.17232571 43.55691339 -32.07882143 32.67890526 -28.84375 21.19140625 C-25.76236121 12.43181312 -19.86846329 5.99396207 -11.609375 1.765625 C-7.63389476 0.35175128 -4.16835758 -0.06375017 0 0 Z " fill="#FDF8EE" transform="translate(319.875,517.5625)"/>
<path d="M0 0 C37.37651822 0 37.37651822 0 47.1015625 8.9296875 C53.38659915 15.78373981 54.47844479 21.31268513 54.3046875 30.55078125 C53.80552763 36.20152698 52.29860684 39.73252553 48.26953125 43.70703125 C34.64087354 54.88742709 16.63425784 52 0 52 C0 34.84 0 17.68 0 0 Z " fill="#FCF9EF" transform="translate(667,473)"/>
<path d="M0 0 C0.66 0 1.32 0 2 0 C4.5301255 6.9914153 7.05659667 13.98414328 9.58056641 20.9777832 C10.43910569 23.35536379 11.29847215 25.73264586 12.15869141 28.10961914 C13.39705007 31.53192711 14.63240184 34.95530776 15.8671875 38.37890625 C16.25059296 39.43646622 16.63399841 40.49402618 17.02902222 41.58363342 C17.38924469 42.5841423 17.74946716 43.58465118 18.12060547 44.61547852 C18.43593231 45.48817886 18.75125916 46.36087921 19.07614136 47.26002502 C20.15919443 50.47213797 21.06875318 53.74063612 22 57 C8.14 57 -5.72 57 -20 57 C-16.625 45.75 -16.625 45.75 -15.09887695 41.55029297 C-14.75875076 40.61007294 -14.41862457 39.66985291 -14.06819153 38.70114136 C-13.71182114 37.72468658 -13.35545074 36.74823181 -12.98828125 35.7421875 C-12.61519333 34.71312286 -12.24210541 33.68405823 -11.85771179 32.62380981 C-10.67855859 29.37326146 -9.4955964 26.12411496 -8.3125 22.875 C-7.50690812 20.65634197 -6.70156716 18.43759282 -5.89648438 16.21875 C-3.93388799 10.81144356 -1.9681719 5.40527937 0 0 Z " fill="#FBF8EF" transform="translate(542,490)"/>
<path d="M0 0 C8.91 0 17.82 0 27 0 C27 9.57 27 19.14 27 29 C18.09 28.67 9.18 28.34 0 28 C0 27.67 0 27.34 0 27 C8.25 27 16.5 27 25 27 C25 18.42 25 9.84 25 1 C16.75 1 8.5 1 0 1 C0 0.67 0 0.34 0 0 Z " fill="#000713" transform="translate(439,490)"/>
<path d="M0 0 C1.65 0 3.3 0 5 0 C4.51202438 0.70916061 4.02404877 1.41832123 3.52128601 2.14897156 C1.83500881 5.30920851 1.6349588 7.06902593 1.65942383 10.61645508 C1.65965042 11.71721878 1.65987701 12.81798248 1.66011047 13.95210266 C1.67559433 15.1293541 1.69107819 16.30660553 1.70703125 17.51953125 C1.71339851 19.34009285 1.71339851 19.34009285 1.71989441 21.19743347 C1.73667092 25.0693491 1.77432267 28.94074199 1.8125 32.8125 C1.8275481 35.4394456 1.84123629 38.06639937 1.85351562 40.69335938 C1.88657119 47.12908424 1.93676117 53.56450477 2 60 C-1.11954128 61.55977064 -4.42959384 61.12104126 -7.8515625 61.09765625 C-8.62559418 61.0962413 -9.39962585 61.09482635 -10.19711304 61.09336853 C-12.67311442 61.08776403 -15.14902588 61.07521083 -17.625 61.0625 C-19.30208203 61.05748558 -20.97916547 61.05292257 -22.65625 61.04882812 C-26.77086806 61.03779315 -30.88541878 61.02052554 -35 61 C-35 60.67 -35 60.34 -35 60 C-23.78 59.67 -12.56 59.34 -1 59 C-0.67 39.53 -0.34 20.06 0 0 Z " fill="#FEFEFB" transform="translate(667,555)"/>
<path d="M0 0 C1.5 1.375 1.5 1.375 3 3 C3 3.66 3 4.32 3 5 C-9.87 5 -22.74 5 -36 5 C-36 4.34 -36 3.68 -36 3 C-24.12 2.67 -12.24 2.34 0 2 C0 1.34 0 0.68 0 0 Z " fill="#25958E" transform="translate(759,610)"/>
<path d="M0 0 C0 3 0 3 -2.1875 5.5625 C-6.97368284 9.71052513 -11.84140688 10.45460469 -18 11.1875 C-18.69867188 11.28224609 -19.39734375 11.37699219 -20.1171875 11.47460938 C-23.98110649 11.95213144 -27.23460283 12.03695508 -31 11 C-31 10.67 -31 10.34 -31 10 C-30.18917969 9.97421875 -29.37835938 9.9484375 -28.54296875 9.921875 C-17.45322033 9.35383201 -8.72527453 6.98021963 0 0 Z " fill="#0A1520" transform="translate(344,577)"/>
<path d="M0 0 C5.61 0 11.22 0 17 0 C14.9376064 7.11525794 12.59810321 14.06293255 10 21 C8.5783132 16.73493961 10.34613318 13.79962257 11.9375 9.8125 C12.22818359 9.06291016 12.51886719 8.31332031 12.81835938 7.54101562 C13.53725036 5.69075523 14.26754653 3.84493352 15 2 C14.16855469 2.02320313 13.33710938 2.04640625 12.48046875 2.0703125 C10.85044922 2.09738281 10.85044922 2.09738281 9.1875 2.125 C8.10855469 2.14820313 7.02960938 2.17140625 5.91796875 2.1953125 C3 2 3 2 0 0 Z " fill="#060D15" transform="translate(258,441)"/>
<path d="M0 0 C2.09749995 2.35968744 2.96905704 3.54616994 3.1875 6.75 C3.125625 7.4925 3.06375 8.235 3 9 C2.360625 9.103125 1.72125 9.20625 1.0625 9.3125 C0.0415625 9.6528125 0.0415625 9.6528125 -1 10 C-1.33 10.99 -1.66 11.98 -2 13 C-2.66 13 -3.32 13 -4 13 C-4.99 16.465 -4.99 16.465 -6 20 C-7.4146816 15.75595521 -5.6963296 12.84871797 -4.125 8.875 C-3.84269531 8.13378906 -3.56039063 7.39257812 -3.26953125 6.62890625 C-1.15992374 1.15992374 -1.15992374 1.15992374 0 0 Z " fill="#078E88" transform="translate(499,514)"/>
<path d="M0 0 C2.56529454 1.28264727 2.66499863 2.22772349 3.625 4.875 C4.01558594 5.92300781 4.01558594 5.92300781 4.4140625 6.9921875 C5 9 5 9 5 12 C-5.89 12 -16.78 12 -28 12 C-28 11.67 -28 11.34 -28 11 C-12.655 10.505 -12.655 10.505 3 10 C2.34 7.69 1.68 5.38 1 3 C0.34 3 -0.32 3 -1 3 C-0.67 2.01 -0.34 1.02 0 0 Z " fill="#00837E" transform="translate(619,602)"/>
<path d="M0 0 C0.66 0 1.32 0 2 0 C2.66 2.31 3.32 4.62 4 7 C3.01 7.33 2.02 7.66 1 8 C0.67 8.66 0.34 9.32 0 10 C-0.66 10 -1.32 10 -2 10 C-2.33 11.98 -2.66 13.96 -3 16 C-3.66 16 -4.32 16 -5 16 C-3.41078475 10.63904723 -1.81027062 5.29156027 0 0 Z " fill="#ECF7F2" transform="translate(542,490)"/>
<path d="M0 0 C4.68207822 3.74566258 8.85443094 7.80953163 12.9375 12.1875 C13.43419189 12.71053711 13.93088379 13.23357422 14.44262695 13.77246094 C18 17.64373812 18 17.64373812 18 21 C17.52949219 20.50628906 17.05898438 20.01257813 16.57421875 19.50390625 C15.95160156 18.86324219 15.32898438 18.22257812 14.6875 17.5625 C14.07261719 16.92441406 13.45773437 16.28632813 12.82421875 15.62890625 C10.99355944 13.7778582 10.99355944 13.7778582 8 13 C7.731875 12.278125 7.46375 11.55625 7.1875 10.8125 C5.773575 7.46373027 3.89984141 5.74172223 1.2421875 3.33203125 C0 2 0 2 0 0 Z " fill="#0C827C" transform="translate(764,440)"/>
<path d="M0 0 C1.65 0 3.3 0 5 0 C5.12375 0.721875 5.2475 1.44375 5.375 2.1875 C6.40780954 6.83514293 7.98935401 10.30511628 11 14 C10.34 14.66 9.68 15.32 9 16 C7.49445366 13.71180854 5.99542957 11.41978831 4.5 9.125 C4.07074219 8.47402344 3.64148438 7.82304688 3.19921875 7.15234375 C0 2.2265625 0 2.2265625 0 0 Z " fill="#098C85" transform="translate(713,598)"/>
<path d="M0 0 C0.33 0 0.66 0 1 0 C1 3.96 1 7.92 1 12 C-5.6 12 -12.2 12 -19 12 C-19 11.67 -19 11.34 -19 11 C-10.585 10.505 -10.585 10.505 -2 10 C-1.34 6.7 -0.68 3.4 0 0 Z " fill="#D2D8D6" transform="translate(404,478)"/>
<path d="M0 0 C3 2 3 2 3.625 3.84765625 C3.74875 4.57855469 3.8725 5.30945313 4 6.0625 C4.92181598 10.87469191 6.3644442 15.38773265 8 20 C7.34 20 6.68 20 6 20 C4.80003066 17.04657157 3.61718896 14.08658106 2.4375 11.125 C2.09525391 10.28324219 1.75300781 9.44148437 1.40039062 8.57421875 C1.08134766 7.76855469 0.76230469 6.96289062 0.43359375 6.1328125 C-0.01415405 5.01737061 -0.01415405 5.01737061 -0.47094727 3.87939453 C-1 2 -1 2 0 0 Z " fill="#F2FAF7" transform="translate(587,513)"/>
<path d="M0 0 C1.4216868 4.26506039 -0.34613318 7.20037743 -1.9375 11.1875 C-2.22818359 11.93708984 -2.51886719 12.68667969 -2.81835938 13.45898438 C-3.53725036 15.30924477 -4.26754653 17.15506648 -5 19 C-6.07302492 15.78092525 -5.95483207 15.19239801 -5 12.125 C-4.0636244 8.74156284 -3.93061632 6.42202778 -5 3 C-4.01 3.33 -3.02 3.66 -2 4 C-1.34 2.68 -0.68 1.36 0 0 Z " fill="#088780" transform="translate(534,509)"/>
<path d="M0 0 C1.0828125 0.99 1.0828125 0.99 2.1875 2 C5.21597933 4.1535853 6.39703406 4.41176754 10 4 C10 3.34 10 2.68 10 2 C10.66 2 11.32 2 12 2 C11.38722388 4.96175123 10.74627478 6.38058783 9 9 C5.18063472 7.44396229 2.73955562 5.04395069 0 2 C0 1.34 0 0.68 0 0 Z " fill="#06867F" transform="translate(788,421)"/>
<path d="M0 0 C3.96 0 7.92 0 12 0 C12.66 1.65 13.32 3.3 14 5 C13.01 4.34 12.02 3.68 11 3 C8.03157342 2.54084493 8.03157342 2.54084493 4.8125 2.375 C3.72582031 2.30023437 2.63914062 2.22546875 1.51953125 2.1484375 C0.68808594 2.09945312 -0.14335938 2.05046875 -1 2 C-0.67 1.34 -0.34 0.68 0 0 Z " fill="#FBFDF9" transform="translate(673,555)"/>
<path d="M0 0 C1.32 0.66 2.64 1.32 4 2 C3.34 3.98 2.68 5.96 2 8 C-0.31 7.67 -2.62 7.34 -5 7 C-3.68 6.67 -2.36 6.34 -1 6 C-0.67 4.02 -0.34 2.04 0 0 Z " fill="#01918C" transform="translate(784,509)"/>
<path d="M0 0 C0.66 0.99 1.32 1.98 2 3 C1.113125 3.556875 0.22625 4.11375 -0.6875 4.6875 C-3.84279378 6.77853792 -6.39868111 9.24566235 -9 12 C-9.99 11.67 -10.98 11.34 -12 11 C-11.46890625 10.54109375 -10.9378125 10.0821875 -10.390625 9.609375 C-6.81675301 6.50506283 -3.28145941 3.41818688 0 0 Z " fill="#F8FBF8" transform="translate(372,593)"/>
<path d="M0 0 C2.875 0.6875 2.875 0.6875 6 2 C7.3125 4.375 7.3125 4.375 8 7 C8.20625 7.763125 8.4125 8.52625 8.625 9.3125 C8.74875 9.869375 8.8725 10.42625 9 11 C5.36440339 7.56638098 2.63886654 4.2026393 0 0 Z " fill="#EFF8F4" transform="translate(887,345)"/>
<path d="M0 0 C2.99324263 1.0975223 3.84610901 1.67682892 5.25 4.625 C5.4975 5.40875 5.745 6.1925 6 7 C3.03 6.505 3.03 6.505 0 6 C-1.125 2.25 -1.125 2.25 0 0 Z " fill="#03928C" transform="translate(753,603)"/>
<path d="M0 0 C2.55934601 1.279673 2.6989233 2.24201036 3.6875 4.875 C3.95949219 5.57367187 4.23148438 6.27234375 4.51171875 6.9921875 C5 9 5 9 4 12 C3.896875 11.360625 3.79375 10.72125 3.6875 10.0625 C3.460625 9.381875 3.23375 8.70125 3 8 C2.01 7.67 1.02 7.34 0 7 C0 4.69 0 2.38 0 0 Z " fill="#088780" transform="translate(614,589)"/>
<path d="M0 0 C3.57011026 3.732388 4.10913442 8.0949989 5 13 C4.01 13.495 4.01 13.495 3 14 C1.68 9.71 0.36 5.42 -1 1 C-0.67 0.67 -0.34 0.34 0 0 Z " fill="#EEF1EF" transform="translate(187,550)"/>
<path d="M0 0 C2 3 4 6 6 9 C5.67 9.66 5.34 10.32 5 11 C3.68 10.67 2.36 10.34 1 10 C0.67 6.7 0.34 3.4 0 0 Z " fill="#078681" transform="translate(743,413)"/>
<path d="M0 0 C1.13643966 3.40931897 0.86747764 4.00335456 -0.4375 7.1875 C-0.72496094 7.90292969 -1.01242187 8.61835937 -1.30859375 9.35546875 C-1.53675781 9.89816406 -1.76492188 10.44085937 -2 11 C-2.66 11 -3.32 11 -4 11 C-3.38461538 3.49230769 -3.38461538 3.49230769 -1.4375 1 C-0.963125 0.67 -0.48875 0.34 0 0 Z " fill="#F1F8F4" transform="translate(496,517)"/>
<path d="M0 0 C0.75 1.75 0.75 1.75 1 4 C-0.875 6.0625 -0.875 6.0625 -3 8 C-3.33 8.99 -3.66 9.98 -4 11 C-4.66 11 -5.32 11 -6 11 C-4.54955729 6.89041233 -2.48889248 3.56741255 0 0 Z " fill="#09131D" transform="translate(268,513)"/>
<path d="M0 0 C0.66 0.33 1.32 0.66 2 1 C0.25 3.9375 0.25 3.9375 -2 7 C-3.32 7.33 -4.64 7.66 -6 8 C-4.02 5.36 -2.04 2.72 0 0 Z " fill="#F0F8F5" transform="translate(816,404)"/>
<path d="M0 0 C2 1 2 1 2.8515625 3.28515625 C3.10679687 4.20167969 3.36203125 5.11820313 3.625 6.0625 C3.88539063 6.98160156 4.14578125 7.90070312 4.4140625 8.84765625 C4.60742188 9.55792969 4.80078125 10.26820313 5 11 C2 9 2 9 1.3125 5.875 C1.209375 4.92625 1.10625 3.9775 1 3 C0.34 3 -0.32 3 -1 3 C-0.67 2.01 -0.34 1.02 0 0 Z " fill="#0D867F" transform="translate(619,602)"/>
<path d="M0 0 C2.1519437 3.22791555 2.20086443 4.28400809 2 8 C1.34 8 0.68 8 0 8 C-0.33 8.99 -0.66 9.98 -1 11 C-2.26264601 6.70700357 -1.62950412 4.12168689 0 0 Z " fill="#E9F4EC" transform="translate(508,584)"/>
<path d="M0 0 C0.33 0 0.66 0 1 0 C1.16682272 4.92127034 1.24828052 8.50343896 -1 13 C-2.60772472 9.78455056 -1.61108592 6.42887101 -1 3 C-0.67 2.01 -0.34 1.02 0 0 Z " fill="#EEEDE8" transform="translate(242,531)"/>
<path d="M0 0 C2.64 0.66 5.28 1.32 8 2 C7.67 2.66 7.34 3.32 7 4 C4.69 3.67 2.38 3.34 0 3 C0 2.01 0 1.02 0 0 Z " fill="#112433" transform="translate(338,490)"/>
<path d="M0 0 C1 2 1 2 0.25 5.4375 C-0.8627673 8.60888681 -1.41725594 10.00424323 -4 12 C-3.45660208 7.43545749 -2.20536179 4.0271824 0 0 Z " fill="#0A837D" transform="translate(511,482)"/>
<path d="M0 0 C3.53586014 3.17320782 5.58578031 5.16743695 6 10 C5.01 10 4.02 10 3 10 C0 3.375 0 3.375 0 0 Z " fill="#0E2D40" transform="translate(157,473)"/>
<path d="M0 0 C1.04449911 3.13349732 0.93423645 3.98968256 0 7 C-0.66 7 -1.32 7 -2 7 C-2.33 8.65 -2.66 10.3 -3 12 C-4.21386936 8.35839192 -3.6674695 7.66834531 -2.0625 4.3125 C-1.49208984 3.10013672 -1.49208984 3.10013672 -0.91015625 1.86328125 C-0.60980469 1.24839844 -0.30945313 0.63351562 0 0 Z " fill="#08827C" transform="translate(522,453)"/>
<path d="M0 0 C0 0.66 0 1.32 0 2 C0.66 2.33 1.32 2.66 2 3 C-2.16138263 3.08159574 -5.9472484 2.98248524 -10 2 C-10 1.67 -10 1.34 -10 1 C-2.25 0 -2.25 0 0 0 Z " fill="#05101B" transform="translate(327,515)"/>
<path d="M0 0 C1.485 0.99 1.485 0.99 3 2 C2.67 3.98 2.34 5.96 2 8 C0.26216175 5.39324263 -0.50215905 3.98704569 -1 1 C-0.67 0.67 -0.34 0.34 0 0 Z " fill="#E9F5EF" transform="translate(587,513)"/>
<path d="M0 0 C0.33 1.32 0.66 2.64 1 4 C-0.98 5.32 -2.96 6.64 -5 8 C-3.8141763 4.62496331 -2.72426311 2.35277269 0 0 Z " fill="#09837E" transform="translate(825,440)"/>
<path d="M0 0 C3.25543229 0.34879632 4.01873107 1.02133261 6.25 3.5625 C6.8275 4.366875 7.405 5.17125 8 6 C7.67 6.66 7.34 7.32 7 8 C5.83035398 6.8572081 4.66435444 5.71068285 3.5 4.5625 C2.8503125 3.92441406 2.200625 3.28632813 1.53125 2.62890625 C0 1 0 1 0 0 Z " fill="#F8FEFA" transform="translate(765,440)"/>
</svg>
